<?xml version="1.0" encoding="UTF-8" standalone="no"?>
<svg
   xmlns:osb="http://www.openswatchbook.org/uri/2009/osb"
   xmlns:dc="http://purl.org/dc/elements/1.1/"
   xmlns:cc="http://creativecommons.org/ns#"
   xmlns:rdf="http://www.w3.org/1999/02/22-rdf-syntax-ns#"
   xmlns:svg="http://www.w3.org/2000/svg"
   xmlns="http://www.w3.org/2000/svg"
   xmlns:xlink="http://www.w3.org/1999/xlink"
   viewBox="0 0 186.8272 186.82657"
   height="186.82657"
   width="186.82719"
   id="svg869"
   version="1.1">
  <metadata
     id="metadata875">
  </metadata>
  <defs
     id="defs873">
    <linearGradient
       id="linearGradient7409">
      <stop
         id="stop7405"
         offset="0"
         style="stop-color:#ba2aaa;stop-opacity:1;" />
      <stop
         id="stop7407"
         offset="1"
         style="stop-color:#515ad4;stop-opacity:1" />
    </linearGradient>
    <linearGradient
       id="linearGradient7401">
      <stop
         id="stop7397"
         offset="0"
         style="stop-color:#fa7921;stop-opacity:1;" />
      <stop
         id="stop7399"
         offset="1"
         style="stop-color:#ba2aaa;stop-opacity:1" />
    </linearGradient>
    <linearGradient
       id="linearGradient7393">
      <stop
         id="stop7389"
         offset="0"
         style="stop-color:#fdc052;stop-opacity:1;" />
      <stop
         id="stop7391"
         offset="1"
         style="stop-color:#fa7921;stop-opacity:1" />
    </linearGradient>
    <linearGradient
       osb:paint="solid"
       id="linearGradient7370">
      <stop
         id="stop7368"
         offset="0"
         style="stop-color:#fdc052;stop-opacity:1;" />
    </linearGradient>
    <linearGradient
       gradientTransform="translate(-99.91973,-25.874928)"
       gradientUnits="userSpaceOnUse"
       y2="155.94446"
       x2="194.31883"
       y1="203.69716"
       x1="193.89247"
       id="linearGradient7395"
       xlink:href="#linearGradient7393" />
    <linearGradient
       gradientTransform="translate(-99.91973,-25.874928)"
       gradientUnits="userSpaceOnUse"
       y2="150.14113"
       x2="189.77151"
       y1="179.39778"
       x1="189.05211"
       id="linearGradient7403"
       xlink:href="#linearGradient7401" />
    <linearGradient
       gradientTransform="translate(-99.91973,-25.874928)"
       gradientUnits="userSpaceOnUse"
       y2="32.667362"
       x2="197.06355"
       y1="137.94281"
       x1="197.3024"
       id="linearGradient7411"
       xlink:href="#linearGradient7409" />
    <linearGradient
       gradientUnits="userSpaceOnUse"
       y2="9.9003134"
       x2="168.90088"
       y1="113.60381"
       x1="169.12015"
       id="linearGradient7446"
       xlink:href="#linearGradient7409" />
  </defs>
  <path
     id="path937"
     d="m 183.17822,151.22204 c 0,-20.06362 -40.18854,-43.59662 -89.76463,-43.59662 -49.57608,0 -89.76462,23.533 -89.76462,43.59662 0,9.60706 9.21792,17.34258 24.26279,22.7975 l 14.41627,-11.53415 v 15.68058 c 14.50038,3.2798 32.1038,5.02731 51.08556,5.02731 22.34138,0 42.77561,-2.41887 58.4847,-6.91166 l -3.38527,-10.88989 h 8.75752 v -6.90311 l 15.72478,8.59646 c 6.50115,-4.47284 10.1829,-9.79377 10.1829,-15.86304 z m 0,0"
     style="fill:url(#linearGradient7395);fill-opacity:1;stroke:none;stroke-width:0.36489683;stroke-opacity:1" />
  <path
     id="path939"
     d="m 51.39202,118.43834 c -1.84872,11.40588 -2.86074,19.63459 -2.86074,21.88526 0,10.03182 20.09499,18.16502 44.88231,18.16502 24.78733,0 44.88232,-8.1332 44.88232,-18.16502 0,-2.27918 -1.03625,-10.68036 -2.92915,-22.30717 -27.15489,10.03894 -55.14647,10.18006 -83.97474,0.42191 z m 0,0"
     style="fill:url(#linearGradient7403);fill-opacity:1;stroke-width:0.36489683" />
  <path
     id="path941"
     d="m 142.18291,8.756912 c -5.22971,-5.09145 -12.76853,-6.38285 -19.17418,-3.91837 -20.4157,5.95096 -65.48901,75.79307 -71.61671,113.599798 28.8297,9.75815 56.81985,9.61703 83.97474,-0.42191 -2.55856,-15.72334 0.84524,-34.438558 1.15598,-54.787258 4.11791,-0.44329 7.62149,-2.92203 9.47591,-6.40708 2.41032,1.64632 4.83489,3.25414 7.22239,4.77502 3.05887,-8.41544 8.37838,-14.01717 15.96282,-16.80094 -9.7895,-15.38126 -23.03269,-32.17506 -27.00095,-36.03926 z m 0,0"
     style="fill:url(#linearGradient7411);fill-opacity:1;stroke-width:0.36489683" />
  <path
     id="path943"
     d="m 169.18386,44.796172 c -7.58444,2.78519 -12.90395,8.3855 -15.96282,16.80094 12.10289,7.70987 23.23225,13.19188 26.30821,10.06174 3.10448,-3.16006 -2.51722,-14.56024 -10.34539,-26.86268 z m 0,0"
     style="fill:url(#linearGradient7446);fill-opacity:1;stroke-width:0.36489683" />
  <path
     id="path945"
     d="m 158.56764,118.67496 c -6.27024,-3.23846 -13.10778,-5.97377 -20.33302,-8.1774 -0.4604,-7.95219 0.16249,-16.692598 0.81816,-25.827848 0.43047,-5.98232 0.87233,-12.14138 1.05621,-18.50854 2.60132,-0.8424 4.93894,-2.34047 6.78337,-4.34741 1.49523,0.99634 2.95482,1.94707 4.36309,2.84363 6.84467,4.36166 12.59892,7.5203 17.10026,9.38897 3.98964,1.65629 10.23564,3.763 13.78199,0.15252 3.46224,-3.52496 1.47954,-9.64269 -0.31216,-13.93735 -1.91999,-4.60112 -5.13564,-10.458 -9.56001,-17.40957 -9.59423,-15.07481 -23.10396,-32.38175 -27.53119,-36.69209 -6.03363,-5.87541 -15.00638,-7.73696 -22.90155,-4.76361 -15.60362,4.71229 -36.90162,36.64932 -43.07351,46.35187 -14.28229,22.45398 -24.88141,45.13746 -29.34997,62.508538 -7.52599,2.24497 -14.64433,5.05725 -21.14976,8.41829 C 10.29978,127.95274 0,139.81474 0,151.22204 c 0,7.54738 4.62535,18.22061 26.66313,26.21129 1.19874,0.43474 2.5386,0.2138 3.53351,-0.58156 l 8.48243,-6.78622 v 8.099 c 0,1.69762 1.17879,3.16719 2.84078,3.54349 14.80113,3.34821 32.74521,5.11853 51.89374,5.11853 22.7861,0 43.35859,-2.43882 59.49102,-7.05277 1.91144,-0.54735 3.06456,-2.68399 2.47874,-4.56691 l -1.92142,-6.18187 h 3.80861 c 2.01549,0 3.64897,-1.62778 3.64897,-3.63329 v -0.764 l 10.31974,5.64165 c 1.21157,0.6628 2.69397,0.58725 3.83142,-0.19528 7.8011,-5.36797 11.75652,-11.70948 11.75652,-18.85063 0,-11.40873 -10.29978,-23.27073 -28.25955,-32.54851 z m -0.80676,-58.524608 c 2.31196,-4.94749 5.61028,-8.50096 9.99617,-10.76589 8.14747,13.22467 8.99271,18.10944 8.99984,19.54479 -1.41682,-0.0228 -6.19184,-0.88373 -18.99601,-8.7789 z m -72.83541,-8.51379 c 8.53516,-13.41851 18.08805,-27.30739 30.26506,-37.75399 6.88742,-5.90962 16.92921,-9.84224 24.44096,-2.5272 3.2969,3.20996 14.72843,17.54071 24.19579,31.88001 -5.26392,2.86787 -9.36473,7.20529 -12.24827,12.95669 -1.05621,-0.69986 -14.86527,-10.05319 -14.88523,-10.06745 -1.64773,-1.11179 -3.95257,-0.67135 -5.06722,0.96926 -1.11036,1.63206 -0.65282,3.9483 0.97354,5.04727 l 8.14603,5.49483 c -1.28854,1.09184 -2.88781,1.79455 -4.61537,1.98128 -1.83161,0.1967 -3.22848,1.72185 -3.25557,3.55632 -0.11118,7.1896 -0.61433,14.19819 -1.10039,20.97729 -0.80106,11.14788 -1.56221,21.734168 -0.42904,31.436718 0.0542,0.46467 -16.09252,4.3417 -19.4279,4.88477 -12.51197,2.03829 -25.34323,1.95704 -37.85093,-0.0684 -1.58501,-0.25657 -18.66818,-3.65324 -18.50426,-4.43008 3.51641,-16.800928 14.54884,-41.049468 29.3628,-64.337298 z M 52.43254,137.10082 c 4.25191,1.57362 8.51379,2.91775 12.72008,4.00674 1.92854,0.50031 3.9483,-0.6799 4.45145,-2.59704 0.50744,-1.93994 -0.66422,-3.92692 -2.61271,-4.43292 -4.49137,-1.16311 -9.06113,-2.64123 -13.62092,-4.39445 0.26797,-1.90715 0.58583,-4.06232 0.95928,-6.47834 26.62179,8.17169 52.86016,8.06622 78.11786,-0.31358 0.39341,2.52862 0.73407,4.84913 1.02485,6.92306 -12.72435,5.05154 -25.68247,7.66854 -38.55791,7.78684 -1.97558,0.0185 -3.63899,1.70618 -3.61761,3.66607 0.0214,1.93282 1.71758,3.60051 3.64897,3.60051 h 0.0328 c 7.30649,-0.0656 14.68424,-0.88231 21.92802,-2.42599 5.82979,-1.24151 11.69808,-2.99473 17.50364,-5.20264 0.1568,1.4824 0.23661,2.53575 0.23661,3.08452 0,6.06784 -15.68628,14.53174 -41.23334,14.53174 -25.54706,0 -41.23334,-8.4639 -41.23334,-14.53174 0,-0.51028 0.0784,-1.58216 0.25229,-3.22278 z m 120.27485,25.68105 c 0,0 -13.66225,-7.46756 -13.68078,-7.47754 -2.38751,-1.30565 -5.40503,0.49461 -5.40503,3.18429 v 3.26982 c 0,0 -5.09431,0 -5.10856,0 -2.39321,0 -4.19061,2.43883 -3.48648,4.70803 l 2.26778,7.29508 c -14.91658,3.79864 -33.44222,5.79844 -53.88073,5.79844 -17.39674,0 -33.71874,-1.49094 -47.43659,-4.32317 0,0 0,-12.73005 0,-12.75143 0,-2.99045 -3.59052,-4.70946 -5.93527,-2.83223 l -12.78992,10.23279 c -8.22016,-3.22136 -19.95387,-9.43743 -19.95387,-18.66391 0,-8.34701 9.32055,-18.34747 24.32265,-26.09725 5.00451,-2.58563 10.39956,-4.8306 16.08112,-6.72066 -1.71615,10.64473 -2.8194,19.21553 -2.8194,21.91947 0,6.42846 5.4763,12.18556 15.42117,16.21083 8.90292,3.60336 20.66229,5.58749 33.11011,5.58749 12.44783,0 24.20721,-1.98413 33.11012,-5.58749 9.94487,-4.02527 15.42117,-9.78237 15.42117,-16.21083 0,-2.67116 -1.12605,-11.40873 -2.81798,-21.91234 5.68014,1.89005 11.07662,4.12932 16.0797,6.71353 15.0021,7.74978 24.32265,17.75024 24.32265,26.09725 0,4.10509 -2.29201,7.9864 -6.82186,11.55983 z m 0,0"
     style="stroke-width:0.36489683" />
  <path
     id="path947"
     d="m 83.92628,140.3236 c 0,-2.00693 -1.63349,-3.63329 -3.64897,-3.63329 -2.01549,0 -3.64897,1.62636 -3.64897,3.63329 0,2.00551 1.63348,3.63187 3.64897,3.63187 2.01548,0 3.64897,-1.62636 3.64897,-3.63187 z m 0,0"
     style="stroke-width:0.36489683" />
</svg>
